<svg data-name="Layer 1" xmlns="http://www.w3.org/2000/svg" viewBox="0 0 121.75 27.774">
  <path class="ellipsis" d="M27.926 13.906a13.38 13.38 0 0 0-4.04-9.91A13.636 13.636 0 0 0 13.905 0 13.925 13.925 0 0 0 0 13.906a13.154 13.154 0 0 0 1.899 6.905 14.619 14.619 0 0 0 5.054 5.06 13.725 13.725 0 0 0 13.942 0 14.816 14.816 0 0 0 5.103-5.06 13.003 13.003 0 0 0 1.928-6.905zm46.836 0a13.887 13.887 0 1 0-27.774 0 13.255 13.255 0 0 0 1.88 6.905 14.459 14.459 0 0 0 5.035 5.06 13.62 13.62 0 0 0 13.885 0 14.707 14.707 0 0 0 5.065-5.06 13.101 13.101 0 0 0 1.909-6.905zm46.988 0A13.682 13.682 0 0 0 107.844 0a13.62 13.62 0 0 0-9.892 4.054 13.292 13.292 0 0 0-4.128 9.852 13.152 13.152 0 0 0 1.9 6.905 14.56 14.56 0 0 0 5.072 5.06 13.448 13.448 0 0 0 7.048 1.903 13.105 13.105 0 0 0 6.894-1.902 14.87 14.87 0 0 0 5.084-5.06 13.003 13.003 0 0 0 1.928-6.906z"/>
</svg>
