<svg id="Layer_1" data-name="Layer 1" xmlns="http://www.w3.org/2000/svg" viewBox="0 0 80.5355 80.58729">
  <g id="Regular-M">
    <path class="plus" d="M2055.66626,2058.49487a4.43984,4.43984,0,0,0,4.3926,4.3925h31.5085v31.50853a4.25078,4.25078,0,0,0,1.3002,3.0665,4.18315,4.18315,0,0,0,3.0924,1.32606,4.1004,4.1004,0,0,0,3.0665-1.32606,4.2939,4.2939,0,0,0,1.2742-3.0665v-31.50853H2131.861a4.1654,4.1654,0,0,0,3.04059-1.3001,4.32771,4.32771,0,0,0,0-6.1849,4.1654,4.1654,0,0,0-3.04059-1.3001h-31.56031v-31.5085a4.29375,4.29375,0,0,0-1.2742-3.0665,4.10033,4.10033,0,0,0-3.0665-1.3261,4.18308,4.18308,0,0,0-3.0924,1.3261,4.25063,4.25063,0,0,0-1.3002,3.0665v31.5085h-31.5085a4.43984,4.43984,0,0,0-4.3926,4.3926Z" transform="translate(-2055.66626 -2018.20117)"/>
  </g>
</svg>
