<svg id="Layer_1" data-name="Layer 1" xmlns="http://www.w3.org/2000/svg" viewBox="0 0 101.85873 114.0054">
  <g id="Heavy-M">
    <path class="trash" d="M1785.196,1175.35293h45.74q6.4227,0,9.80031-3.1253,3.3777-3.12527,3.6519-9.30035l3.0151-68.28465h5.1265a6.40307,6.40307,0,0,0,4.611-1.7595,5.99545,5.99545,0,0,0,1.837-4.5304,5.86789,5.86789,0,0,0-1.839-4.4673,6.44986,6.44986,0,0,0-4.609-1.7355h-88.9604a6.45977,6.45977,0,0,0-4.60355,1.73661,5.85671,5.85671,0,0,0-1.84678,4.46619,5.97828,5.97828,0,0,0,1.84678,4.5315,6.41482,6.41482,0,0,0,4.60355,1.7584h5.1616l3.0129,68.28465q.2741,6.17508,3.6642,9.30035Q1778.79832,1175.35292,1785.196,1175.35293Zm6.6527-17.83853a4.2165,4.2165,0,0,1-3.0928-1.17895,4.32857,4.32857,0,0,1-1.25551-3.07182l-1.43249-48.107a4.07955,4.07955,0,0,1,1.09289-3.1095,4.15076,4.15076,0,0,1,3.1222-1.1872,4.46531,4.46531,0,0,1,3.19251,1.156,4.24038,4.24038,0,0,1,1.28659,3.0925l1.43251,48.06567a4.09611,4.09611,0,0,1-1.1217,3.1302A4.29921,4.29921,0,0,1,1791.84872,1157.5144Zm16.2009,0a4.31926,4.31926,0,0,1-3.1233-1.16535,4.03219,4.03219,0,0,1-1.21181-3.04409v-48.23563a4.01563,4.01563,0,0,1,1.21181-3.0659,4.87829,4.87829,0,0,1,6.2767,0,4.0694,4.0694,0,0,1,1.18169,3.0659V1153.305a4.0861,4.0861,0,0,1-1.18169,3.04409A4.29557,4.29557,0,0,1,1808.04962,1157.5144Zm16.2174.00455a4.2903,4.2903,0,0,1-3.2336-1.21125,4.11723,4.11723,0,0,1-1.1124-3.13131l1.4325-48.06566a4.264,4.264,0,0,1,1.27839-3.0843,4.4369,4.4369,0,0,1,3.19841-1.1643,4.15612,4.15612,0,0,1,3.11519,1.1872,4.06627,4.06627,0,0,1,1.0999,3.1095l-1.43249,48.10706a4.3187,4.3187,0,0,1-1.26251,3.073A4.21736,4.21736,0,0,1,1824.267,1157.51895Zm-41.2856-73.07662H1797.006v-8.7922a2.0894,2.0894,0,0,1,.70861-1.6979,3.08343,3.08343,0,0,1,2.0301-.59269h16.60749a3.08745,3.08745,0,0,1,2.03241.59269,2.08942,2.08942,0,0,1,.7086,1.6979v8.7922h13.98949v-9.1308q0-6.7407-4.06019-10.3524-4.0603-3.61159-11.682-3.6116h-18.6169q-7.6053,0-11.67381,3.6116-4.06839,3.6117-4.06839,10.3524Z" transform="translate(-1757.11909 -1061.34753)"/>
  </g>
</svg>
